<svg xmlns="http://www.w3.org/2000/svg" viewBox="0 0 920 620" role="img" aria-label="">
  <defs>
    <radialGradient id="halo" cx="50%" cy="50%" r="50%"><stop offset="0" stop-color="#8068ff" stop-opacity=".22"/><stop offset=".55" stop-color="#5143a8" stop-opacity=".07"/><stop offset="1" stop-color="#080e18" stop-opacity="0"/></radialGradient>
    <linearGradient id="a" x1="0" y1="0" x2="1" y2="1"><stop stop-color="#c2b6ff"/><stop offset=".48" stop-color="#8d70ff"/><stop offset="1" stop-color="#45c8ed"/></linearGradient>
    <linearGradient id="pink" x1="0" y1="0" x2="1" y2="1"><stop stop-color="#ff67bb"/><stop offset="1" stop-color="#8c65ff"/></linearGradient>
    <linearGradient id="cyan" x1="0" y1="0" x2="1" y2="1"><stop stop-color="#55e4f3"/><stop offset="1" stop-color="#4b73ff"/></linearGradient>
    <linearGradient id="card" x1="0" y1="0" x2="1" y2="1"><stop stop-color="#262449"/><stop offset="1" stop-color="#0b1522"/></linearGradient>
    <filter id="glow" x="-60%" y="-60%" width="220%" height="220%"><feGaussianBlur stdDeviation="8" result="b"/><feMerge><feMergeNode in="b"/><feMergeNode in="SourceGraphic"/></feMerge></filter>
  </defs>
  <ellipse cx="470" cy="310" rx="300" ry="210" fill="url(#halo)"/>
  <g fill="none" stroke-linecap="round">
    <ellipse cx="470" cy="310" rx="318" ry="174" stroke="#b4a8ff" stroke-opacity=".20" transform="rotate(-8 470 310)"/>
    <ellipse cx="470" cy="310" rx="250" ry="244" stroke="#65dbea" stroke-opacity=".14" transform="rotate(22 470 310)"/>
    <ellipse cx="470" cy="310" rx="375" ry="116" stroke="#e06ab8" stroke-opacity=".13" transform="rotate(14 470 310)"/>
    <path d="M179 362C273 430 666 431 760 337" stroke="#7d6bdf" stroke-opacity=".13" stroke-dasharray="3 14"/>
  </g>
  <g opacity=".9">
    <circle cx="213" cy="173" r="3" fill="#ff77c5"/><circle cx="742" cy="194" r="3" fill="#63e6f2"/><circle cx="657" cy="493" r="2.5" fill="#9b84ff"/><circle cx="270" cy="487" r="2.5" fill="#5dd8ed"/>
  </g>
  <g transform="translate(405 177)" filter="url(#glow)">
    <path d="M65 0 154 260h-45l-20-62H38l-19 62h-44L65 0Zm0 67-18 92h34L65 67Z" fill="url(#a)" fill-rule="evenodd"/>
    <path d="M20 203 65 80l45 123" fill="none" stroke="#edf0ff" stroke-opacity=".25" stroke-width="3"/>
  </g>
  <g transform="translate(54 260)">
    <rect x="0" y="0" width="174" height="112" rx="22" fill="#0a1321" stroke="url(#pink)" stroke-opacity=".72"/>
    <rect x="17" y="17" width="140" height="78" rx="14" fill="#11162a" stroke="#ff72bf" stroke-opacity=".25"/>
    <circle cx="87" cy="48" r="17" fill="#ff68b7" fill-opacity=".18" stroke="#ff73c0" stroke-opacity=".62"/>
    <path d="M51 84c9-23 63-23 72 0" fill="#a45dff" fill-opacity=".16" stroke="#b86dff" stroke-opacity=".5"/>
    <circle cx="151" cy="14" r="4" fill="#ff6ab9"/>
  </g>
  <g transform="translate(704 246)">
    <rect x="0" y="0" width="174" height="112" rx="22" fill="#081521" stroke="url(#cyan)" stroke-opacity=".72"/>
    <rect x="17" y="17" width="140" height="78" rx="14" fill="#0a1b28" stroke="#59dcea" stroke-opacity=".25"/>
    <circle cx="87" cy="48" r="17" fill="#55deeb" fill-opacity=".16" stroke="#61e8f2" stroke-opacity=".62"/>
    <path d="M51 84c9-23 63-23 72 0" fill="#4d83ff" fill-opacity=".15" stroke="#55bdf0" stroke-opacity=".5"/>
    <circle cx="151" cy="14" r="4" fill="#59dfea"/>
  </g>
  <g fill="url(#card)" stroke-width="1.3">
    <g transform="translate(253 83) rotate(-13)"><rect width="72" height="102" rx="9" stroke="#ff70bb" stroke-opacity=".55"/><path d="M12 18h48v48H12z" fill="#b95fff" fill-opacity=".12" stroke="#e373ca" stroke-opacity=".25"/><circle cx="36" cy="42" r="14" fill="#ff62b2" fill-opacity=".16"/><path d="M13 79h46M13 87h31" stroke="#bda8d4" stroke-opacity=".22"/></g>
    <g transform="translate(634 72) rotate(14)"><rect width="72" height="102" rx="9" stroke="#61dfef" stroke-opacity=".58"/><path d="M12 18h48v48H12z" fill="#54dfea" fill-opacity=".10" stroke="#6adce9" stroke-opacity=".25"/><path d="m21 57 15-29 16 29Z" fill="#5acde9" fill-opacity=".18"/><path d="M13 79h46M13 87h31" stroke="#a4c9d5" stroke-opacity=".22"/></g>
    <g transform="translate(220 438) rotate(12)"><rect width="72" height="102" rx="9" stroke="#7bcbff" stroke-opacity=".46"/><path d="M12 18h48v48H12z" fill="#548cff" fill-opacity=".11" stroke="#719cff" stroke-opacity=".25"/><circle cx="36" cy="42" r="15" fill="none" stroke="#65c9f0" stroke-opacity=".35"/><path d="M13 79h46M13 87h31" stroke="#a8bed2" stroke-opacity=".22"/></g>
    <g transform="translate(660 419) rotate(-11)"><rect width="72" height="102" rx="9" stroke="#ae80ff" stroke-opacity=".52"/><path d="M12 18h48v48H12z" fill="#865fff" fill-opacity=".11" stroke="#ad7eff" stroke-opacity=".25"/><path d="m36 28 15 27-30 0Z" fill="#a56aff" fill-opacity=".2"/><path d="M13 79h46M13 87h31" stroke="#b9aed2" stroke-opacity=".22"/></g>
  </g>
</svg>
